<svg xmlns="http://www.w3.org/2000/svg" viewBox="0 0 256 256" role="img" aria-labelledby="title desc">
  <title id="title">react-dialog-flow logo mark</title>
  <desc id="desc">Stacked dialog panels connected to a flowing async path.</desc>
  <defs>
    <linearGradient id="panel" x1="56" x2="172" y1="52" y2="184" gradientUnits="userSpaceOnUse">
      <stop stop-color="#8b5cf6"/>
      <stop offset="0.55" stop-color="#1488ff"/>
      <stop offset="1" stop-color="#22d3ee"/>
    </linearGradient>
    <linearGradient id="flow" x1="112" x2="224" y1="136" y2="188" gradientUnits="userSpaceOnUse">
      <stop stop-color="#22d3ee"/>
      <stop offset="0.58" stop-color="#3b82f6"/>
      <stop offset="1" stop-color="#a855f7"/>
    </linearGradient>
  </defs>
  <g fill="none" stroke-linecap="round" stroke-linejoin="round">
    <path d="M42 91.5 111 51c11-6.5 25 1.4 25 14.2v94.7c0 9-4.8 17.3-12.6 21.8L72 211.9v-33.4l-28.2 16.7C34.2 201 22 194.1 22 183V126c0-14.2 7.6-27.4 20-34.5Z" fill="url(#panel)"/>
    <path d="M42 91.5 111 51c11-6.5 25 1.4 25 14.2v94.7c0 9-4.8 17.3-12.6 21.8L72 211.9v-33.4l-28.2 16.7C34.2 201 22 194.1 22 183V126c0-14.2 7.6-27.4 20-34.5Z" stroke="#67e8f9" stroke-opacity=".32" stroke-width="3"/>
    <path d="M53 80 119 41c8.8-5.2 20 1.1 20 11.3" stroke="#8b5cf6" stroke-opacity=".5" stroke-width="16"/>
    <path d="M37 66 101 28c8.8-5.2 20 1.1 20 11.3" stroke="#7c3aed" stroke-opacity=".38" stroke-width="16"/>
    <path d="M92 125h42c16.5 0 23.5 9.8 28.3 22.8 4.3 11.7 11.7 18.2 26.4 18.2H222" stroke="url(#flow)" stroke-width="13"/>
    <circle cx="92" cy="125" r="17" fill="#11131a" stroke="#22d3ee" stroke-width="10"/>
    <circle cx="162" cy="149" r="11" fill="#38bdf8" stroke="#11131a" stroke-width="6"/>
    <circle cx="222" cy="166" r="15" fill="#a855f7" stroke="#11131a" stroke-width="7"/>
  </g>
</svg>
